<?xml version="1.0" encoding="UTF-8"?><!DOCTYPE svg PUBLIC "-//W3C//DTD SVG 1.1//EN" "http://www.w3.org/Graphics/SVG/1.1/DTD/svg11.dtd"><svg xmlns="http://www.w3.org/2000/svg"><symbol id="code" viewBox="0 0 600 600"><path d="M65.7 267.5l117.6-75v46.2l-75.6 45.6v1.2l75.6 45.6v46.2l-117.6-75v-34.8zM250.3 490.5h-42.6l139-381h42.6l-139 381zM534.3 302.3l-117.6 75v-46.2l75.6-45.6v-1.2l-75.6-45.6v-46.2l117.6 75v34.8z"/></symbol><symbol id="eyedropper" viewBox="0 0 600 600"><path d="M318.7 182.1v309.2c0 10.4-8.1 20.3-18.5 20.6-10.9.4-19.9-9.4-19.9-20.2V182.1h-29.5v323.4c0 7.3 4 14.1 10.6 17.4 10.8 5.5 19.1 19 21.3 35.2.6 4.8 4.9 8.4 9.7 8.4h14.5c4.9 0 9.1-3.6 9.7-8.5 2.1-16.4 10.2-30.1 21.7-35.4 6.8-3.2 10.9-10.2 10.9-17.6V182.1h-30.5zM383.3 124.6c-11.5-2.3-31.2-9.5-32.8-31.8-2.6-35.5-16.6-49.6-29.2-55.4-6.7-3.1-13-3.3-16.9-3.3h-8.5.2v-.6c-12 .1-42.5 5.4-46.3 59.4-1.6 22.4-21.4 29.5-32.8 31.8-4.6.9-7.8 4.9-7.8 9.6V162l91-.4 91 .4v-27.8c-.2-4.7-3.3-8.7-7.9-9.6z"/></symbol><symbol id="eyedropper_45" viewBox="0 0 600 600"><path d="M393.3 233.4L174.7 452c-7.4 7.4-20.1 8.6-27.7 1.5-8-7.4-7.5-20.7.2-28.3l218.9-218.9-20.9-20.9-228.6 228.7c-5.2 5.2-7.1 12.8-4.9 19.8 3.7 11.6.1 26.9-9.9 39.9-3 3.9-2.5 9.4.9 12.8l10.2 10.2c3.5 3.5 9 3.9 12.9.9 13.1-10.1 28.5-14 40.4-9.7 7 2.5 14.9.5 20.2-4.7L414.9 255l-21.6-21.6zM479.6 238.4c-6.5-9.7-15.4-28.8-.7-45.7 23.3-26.9 23.5-47 18.7-60-2.6-6.9-6.7-11.7-9.5-14.5l-6-6 .1.1.1-.1c-8.5-8.4-33.9-26.2-74.8 9.2-17 14.7-36 5.8-45.7-.7-3.9-2.6-9-2.1-12.3 1.3l-19.6 19.6 64.6 64.1 64.1 64.6 19.6-19.6c3.4-3.4 4.1-8.4 1.4-12.3z"/></symbol><symbol id="eyedropper_45_add" viewBox="0 0 600 600"><path d="M393.4 238.4L174.8 457.1c-7.4 7.4-20.1 8.6-27.7 1.5-8-7.4-7.5-20.7.2-28.3l218.9-218.9-20.9-20.9-228.7 228.6c-5.2 5.2-7.1 12.8-4.9 19.8 3.7 11.6.1 26.9-9.9 39.9-3 3.9-2.5 9.4.9 12.8l10.2 10.2c3.5 3.5 9 3.9 12.9.9 13.1-10.1 28.5-14 40.4-9.7 7 2.5 14.9.5 20.2-4.7L415 260l-21.6-21.6zM479.7 243.4c-6.5-9.7-15.4-28.8-.7-45.7 23.3-26.9 23.5-47 18.7-60-2.6-6.9-6.7-11.7-9.5-14.5l-6-6 .1.1.1-.1c-8.5-8.4-33.9-26.2-74.8 9.2-17 14.7-36 5.8-45.7-.7-3.9-2.6-9-2.1-12.3 1.3L330 146.7l64.6 64.1 64.1 64.6 19.6-19.6c3.4-3.4 4-8.4 1.4-12.4zM203 132h-37V95h-29v37h-37v29h37v37h29v-37h37"/></symbol><symbol id="eyedropper_45_subtract" viewBox="0 0 600 600"><path d="M393.3 233.4L174.7 452c-7.4 7.4-20.1 8.6-27.7 1.5-8-7.4-7.5-20.7.2-28.3l218.9-218.9-20.9-20.9-228.6 228.7c-5.2 5.2-7.1 12.8-4.9 19.8 3.7 11.6.1 26.9-9.9 39.9-3 3.9-2.5 9.4.9 12.8l10.2 10.2c3.5 3.5 9 3.9 12.9.9 13.1-10.1 28.5-14 40.4-9.7 7 2.5 14.9.5 20.2-4.7L414.9 255l-21.6-21.6zM479.6 238.4c-6.5-9.7-15.4-28.8-.7-45.7 23.3-26.9 23.5-47 18.7-60-2.6-6.9-6.7-11.7-9.5-14.5l-6-6 .1.1.1-.1c-8.5-8.4-33.9-26.2-74.8 9.2-17 14.7-36 5.8-45.7-.7-3.9-2.6-9-2.1-12.3 1.3l-19.6 19.6 64.6 64.1 64.1 64.6 19.6-19.6c3.4-3.4 4.1-8.4 1.4-12.3zM99.9 127.2h102.4v28.5H99.9z"/></symbol></svg>