<?xml version="1.0" encoding="utf-8"?>
<!-- Generator: Adobe Illustrator 19.0.0, SVG Export Plug-In . SVG Version: 6.00 Build 0)  -->
<svg version="1.1" id="Layer_1" xmlns="http://www.w3.org/2000/svg" xmlns:xlink="http://www.w3.org/1999/xlink" x="0px" y="0px"
	 viewBox="-113 55 36 36" style="enable-background:new -113 55 36 36;" xml:space="preserve">
<path id="XMLID_6_" d="M-95,68c-2.8,0-5,2.3-5,5s2.3,5,5,5s5-2.3,5-5S-92.2,68-95,68z"/>
<path id="XMLID_10_" d="M-94.3,64.4c-0.1,0-0.1,0-0.2,0h-0.1c-0.1,0-0.3,0-0.4,0c-9.8,0-15,8.6-15,8.6s4.9,8.2,14.3,8.6
	c0.1,0,0.1,0,0.2,0h0.1c0.1,0,0.3,0,0.4,0c9.8,0,15-8.6,15-8.6S-84.9,64.8-94.3,64.4z M-95,79.8c-3.8,0-6.8-3.1-6.8-6.8
	s3.1-6.8,6.8-6.8s6.8,3.1,6.8,6.8S-91.2,79.8-95,79.8z"/>
</svg>
