<?xml version="1.0" encoding="utf-8"?>
<!-- Generator: Adobe Illustrator 19.0.0, SVG Export Plug-In . SVG Version: 6.00 Build 0)  -->
<svg version="1.1" id="Layer_1" xmlns="http://www.w3.org/2000/svg" xmlns:xlink="http://www.w3.org/1999/xlink" x="0px" y="0px"
	 viewBox="-266 286 30 30" style="enable-background:new -266 286 30 30;" xml:space="preserve">
<path d="M-237.9,303.3h1.6c0.1-0.8,0.2-1.5,0.2-2.3s-0.1-1.6-0.2-2.3h-1.6c-0.1-0.8-0.3-1.5-0.6-2.2l1.4-0.8c-0.6-1.5-1.3-2.8-2.3-4
	l-1.4,0.8c-0.5-0.6-1-1.1-1.6-1.6l0.8-1.4c-1.2-1-2.6-1.7-4-2.3l-0.8,1.4c-0.7-0.3-1.5-0.5-2.2-0.6v-1.6c-0.8-0.1-1.5-0.2-2.3-0.2
	c-0.8,0-1.6,0.1-2.3,0.2v1.6c-0.8,0.1-1.5,0.3-2.2,0.6l-0.8-1.4c-1.5,0.6-2.8,1.3-4,2.3l0.8,1.4c-0.6,0.5-1.1,1-1.6,1.6l-1.4-0.8
	c-1,1.2-1.7,2.6-2.3,4l1.4,0.8c-0.3,0.7-0.5,1.5-0.6,2.2h-1.6c-0.1,0.8-0.2,1.5-0.2,2.3s0.1,1.6,0.2,2.3h1.6
	c0.1,0.8,0.3,1.5,0.6,2.2l-1.4,0.8c0.6,1.5,1.3,2.8,2.3,4l1.4-0.8c0.5,0.6,1,1.1,1.6,1.6l-0.8,1.4c1.2,1,2.6,1.7,4,2.3l0.8-1.4
	c0.7,0.3,1.5,0.5,2.2,0.6v1.6c0.8,0.1,1.5,0.2,2.3,0.2c0.8,0,1.6-0.1,2.3-0.2v-1.6c0.8-0.1,1.5-0.3,2.2-0.6l0.8,1.4
	c1.5-0.6,2.8-1.3,4-2.3l-0.8-1.4c0.6-0.5,1.1-1,1.6-1.6l1.4,0.8c1-1.2,1.7-2.6,2.3-4l-1.4-0.8C-238.2,304.8-238,304.1-237.9,303.3z
	 M-251,308.2c-4,0-7.2-3.2-7.2-7.2c0-4,3.2-7.2,7.2-7.2s7.2,3.2,7.2,7.2C-243.8,305-247,308.2-251,308.2z"/>
</svg>
