<?xml version="1.0" encoding="utf-8"?>
<!-- Generator: Adobe Illustrator 19.0.0, SVG Export Plug-In . SVG Version: 6.00 Build 0)  -->
<svg version="1.1" id="Layer_2" xmlns="http://www.w3.org/2000/svg" xmlns:xlink="http://www.w3.org/1999/xlink" x="0px" y="0px"
	 viewBox="0 0 30 30" style="enable-background:new 0 0 30 30;" xml:space="preserve">
<path d="M18.1,0c-0.1,0-0.2,0.1-0.2,0.2v10.2c0,0.1-0.1,0.2-0.2,0.2h-11c-0.1,0-0.2-0.1-0.2-0.2V0.3C6.3,0.1,6.2,0,6.1,0H0.2
	C0.1,0,0,0.1,0,0.3v29.5C0,29.9,0.1,30,0.2,30h29.5c0.1,0,0.2-0.1,0.2-0.2V8.6c0-0.1-0.1-0.3-0.2-0.4l-8-8C21.7,0.1,21.6,0,21.4,0
	H18.1z"/>
<path d="M17,9.6c0,0.1-0.1,0.2-0.2,0.2h-3.9c-0.1,0-0.2-0.1-0.2-0.2V0.3c0-0.1,0.1-0.2,0.2-0.2h3.9C16.8,0,17,0.1,17,0.3V9.6z"/>
</svg>
