<?xml version="1.0" encoding="utf-8"?>
<!-- Generator: Adobe Illustrator 19.0.0, SVG Export Plug-In . SVG Version: 6.00 Build 0)  -->
<svg version="1.1" id="Layer_1" xmlns="http://www.w3.org/2000/svg" xmlns:xlink="http://www.w3.org/1999/xlink" x="0px" y="0px"
	 viewBox="-266 286 30 30" style="enable-background:new -266 286 30 30;" xml:space="preserve">
<path d="M-251,286c-8.3,0-15,6.7-15,15s6.7,15,15,15s15-6.7,15-15S-242.7,286-251,286z M-251,290.5c2.5,0,4.5,2,4.5,4.5
	c0,2.5-2,4.5-4.5,4.5s-4.5-2-4.5-4.5C-255.5,292.5-253.5,290.5-251,290.5z M-251,311.8c-3.8,0-7.1-1.9-9-4.8c0-3,6-4.6,9-4.6
	s9,1.6,9,4.6C-243.9,309.9-247.2,311.8-251,311.8z"/>
</svg>
