<?xml version="1.0" encoding="utf-8"?>
<!-- Generator: Adobe Illustrator 19.0.0, SVG Export Plug-In . SVG Version: 6.00 Build 0)  -->
<svg version="1.1" id="Layer_1" xmlns="http://www.w3.org/2000/svg" xmlns:xlink="http://www.w3.org/1999/xlink" x="0px" y="0px"
	 viewBox="0 0 30 30" style="enable-background:new 0 0 30 30;" xml:space="preserve">
<path id="XMLID_6_" d="M15,10c-2.8,0-5,2.3-5,5s2.3,5,5,5s5-2.3,5-5S17.8,10,15,10z"/>
<path id="XMLID_10_" d="M15.7,6.4c-0.1,0-0.1,0-0.2,0c0,0-0.1,0-0.1,0c-0.1,0-0.3,0-0.4,0C5.2,6.4,0,15,0,15s4.9,8.2,14.3,8.6
	c0.1,0,0.1,0,0.2,0c0,0,0.1,0,0.1,0c0.1,0,0.3,0,0.4,0c9.8,0,15-8.6,15-8.6S25.1,6.8,15.7,6.4z M15,21.8c-3.8,0-6.8-3.1-6.8-6.8
	s3.1-6.8,6.8-6.8s6.8,3.1,6.8,6.8S18.8,21.8,15,21.8z"/>
</svg>
