<?xml version="1.0" encoding="utf-8"?>
<!-- Generator: Adobe Illustrator 19.0.0, SVG Export Plug-In . SVG Version: 6.00 Build 0)  -->
<svg version="1.1" id="Layer_1" xmlns="http://www.w3.org/2000/svg" xmlns:xlink="http://www.w3.org/1999/xlink" x="0px" y="0px"
	 viewBox="0 0 600 600" enable-background="new 0 0 600 600" xml:space="preserve">
<g id="XMLID_5_">
	<g id="XMLID_3_">
		<g id="XMLID_8_">
			<path id="XMLID_9_" d="M393.3,233.4L174.7,452c-7.4,7.4-20.1,8.6-27.7,1.5c-8-7.4-7.5-20.7,0.2-28.3
				c0.2-0.2,218.9-218.9,218.9-218.9l-20.9-20.9L116.6,414.1c-5.2,5.2-7.1,12.8-4.9,19.8c3.7,11.6,0.1,26.9-9.9,39.9
				c-3,3.9-2.5,9.4,0.9,12.8l10.2,10.2c3.5,3.5,9,3.9,12.9,0.9c13.1-10.1,28.5-14,40.4-9.7c7,2.5,14.9,0.5,20.2-4.7L414.9,255
				L393.3,233.4z"/>
		</g>
	</g>
	<path id="XMLID_14_" d="M479.6,238.4c-6.5-9.7-15.4-28.8-0.7-45.7c23.3-26.9,23.5-47,18.7-60c-2.6-6.9-6.7-11.7-9.5-14.5l-6-6
		l0.1,0.1l0.1-0.1c-8.5-8.4-33.9-26.2-74.8,9.2c-17,14.7-36,5.8-45.7-0.7c-3.9-2.6-9-2.1-12.3,1.3l-19.6,19.6l64.6,64.1l64.1,64.6
		l19.6-19.6C481.6,247.3,482.3,242.3,479.6,238.4z"/>
</g>
</svg>
