<?xml version="1.0" encoding="utf-8"?>
<!-- Generator: Adobe Illustrator 19.0.0, SVG Export Plug-In . SVG Version: 6.00 Build 0)  -->
<svg version="1.1" id="Layer_1" xmlns="http://www.w3.org/2000/svg" xmlns:xlink="http://www.w3.org/1999/xlink" x="0px" y="0px"
	 viewBox="0 0 600 600" enable-background="new 0 0 600 600" xml:space="preserve">
<g id="XMLID_5_">
	<g id="XMLID_3_">
		<g id="XMLID_8_">
			<path id="XMLID_9_" d="M318.7,182.1v309.2c0,10.4-8.1,20.3-18.5,20.6c-10.9,0.4-19.9-9.4-19.9-20.2c0-0.3,0-309.6,0-309.6h-29.5
				v323.4c0,7.3,4,14.1,10.6,17.4c10.8,5.5,19.1,19,21.3,35.2c0.6,4.8,4.9,8.4,9.7,8.4h14.5c4.9,0,9.1-3.6,9.7-8.5
				c2.1-16.4,10.2-30.1,21.7-35.4c6.8-3.2,10.9-10.2,10.9-17.6V182.1H318.7z"/>
		</g>
	</g>
	<path id="XMLID_14_" d="M383.3,124.6c-11.5-2.3-31.2-9.5-32.8-31.8c-2.6-35.5-16.6-49.6-29.2-55.4c-6.7-3.1-13-3.3-16.9-3.3h-8.5
		h0.2v-0.6c-12,0.1-42.5,5.4-46.3,59.4c-1.6,22.4-21.4,29.5-32.8,31.8c-4.6,0.9-7.8,4.9-7.8,9.6V162l91-0.4l91,0.4v-27.8
		C391,129.5,387.9,125.5,383.3,124.6z"/>
</g>
</svg>
